<?xml version="1.0" standalone="no"?>
<!DOCTYPE svg PUBLIC "-//W3C//DTD SVG 20010904//EN"
 "http://www.w3.org/TR/2001/REC-SVG-20010904/DTD/svg10.dtd">
<svg version="1.0" xmlns="http://www.w3.org/2000/svg"
 width="564.000000pt" height="564.000000pt" viewBox="0 0 564.000000 564.000000"
 preserveAspectRatio="xMidYMid meet">
<metadata>
Created by potrace 1.15, written by Peter Selinger 2001-2017
</metadata>
<g transform="translate(0.000000,564.000000) scale(0.100000,-0.100000)"
fill="#000000" stroke="none">
<path d="M1628 4003 c-2 -9 -2 -549 0 -1200 l2 -1183 220 0 220 0 0 715 c0
393 3 715 8 714 4 0 90 -108 192 -240 319 -414 540 -694 548 -697 5 -1 138
165 298 369 159 204 325 417 369 473 l80 101 3 -717 2 -718 220 0 220 0 0
1200 0 1200 -117 0 -118 0 -475 -610 c-261 -336 -477 -609 -482 -608 -4 2
-124 154 -268 338 -144 184 -321 412 -394 505 -72 94 -168 216 -211 273 l-80
102 -117 0 c-101 0 -117 -2 -120 -17z"/>
<path d="M2420 1857 l0 -237 400 0 400 0 0 237 c0 205 -2 235 -14 223 -8 -8
-96 -112 -196 -230 -100 -118 -185 -215 -190 -215 -5 0 -91 97 -191 215 -99
118 -187 222 -195 230 -12 12 -14 -18 -14 -223z"/>
</g>
</svg>
